<svg xmlns="http://www.w3.org/2000/svg" shape-rendering="geometricPrecision" text-rendering="geometricPrecision" image-rendering="optimizeQuality" fill-rule="evenodd" clip-rule="evenodd" viewBox="0 0 467 512.13"><path fill="gray" fill-rule="nonzero" d="M424.43 512.13H42.58C19.2 512.13 0 492.93 0 469.57V283.04h467v186.53c0 23.41-19.17 42.56-42.57 42.56z"/><path fill="#fff" d="M47.12 498.51h372.77c18.42 0 33.47-15.28 33.47-33.5V283.04H13.65v181.98c0 18.38 15.04 33.49 33.47 33.49z"/><path fill="#F13B31" d="M42.58 28.46h381.84c23.39 0 42.57 19.17 42.57 42.56v212.05H0V71.02c0-23.37 19.2-42.56 42.58-42.56z"/><path fill="#C72B20" d="M320.35 40.47c8.39 0 16 3.41 21.5 8.91 5.49 5.5 8.9 13.1 8.9 21.5 0 8.38-3.41 15.98-8.9 21.48-5.5 5.52-13.11 8.93-21.5 8.93-8.38 0-15.98-3.41-21.49-8.91-5.51-5.52-8.92-13.12-8.92-21.5 0-8.4 3.41-16 8.9-21.5l.3-.28c5.48-5.33 12.97-8.63 21.21-8.63z"/><path fill="#fff" d="M320.34 46.58c13.42 0 24.3 10.88 24.3 24.29 0 13.43-10.88 24.31-24.3 24.31-13.43 0-24.31-10.88-24.31-24.31 0-13.41 10.88-24.29 24.31-24.29z"/><path fill="#C72B20" d="M133.77 40.47c8.4 0 16 3.41 21.5 8.91s8.91 13.1 8.91 21.5c0 8.38-3.41 15.98-8.91 21.48-5.5 5.52-13.1 8.93-21.5 8.93-8.38 0-15.98-3.41-21.48-8.91-5.52-5.52-8.93-13.12-8.93-21.5 0-8.4 3.41-16 8.91-21.5l.3-.28c5.47-5.33 12.96-8.63 21.2-8.63z"/><path fill="#fff" d="M133.76 46.58c13.42 0 24.3 10.88 24.3 24.29 0 13.43-10.88 24.31-24.3 24.31-13.43 0-24.31-10.88-24.31-24.31 0-13.41 10.88-24.29 24.31-24.29z"/><path fill="#1A1A1A" fill-rule="nonzero" d="M116.4 14.24C116.4 6.38 124.16 0 133.76 0c9.61 0 17.38 6.38 17.38 14.24v54.45c0 7.86-7.77 14.24-17.38 14.24-9.6 0-17.36-6.38-17.36-14.24V14.24zM302.98 14.24c0-7.86 7.76-14.24 17.37-14.24 9.6 0 17.37 6.38 17.37 14.24v54.45c0 7.86-7.77 14.24-17.37 14.24-9.61 0-17.37-6.38-17.37-14.24V14.24z"/><path fill="#C2352C" fill-rule="nonzero" d="M110.4 231.97l-2.99-23.88h12.39c3.09 0 5.05-.43 5.9-1.27.85-.85 1.27-1.92 1.27-3.21v-41.06h-12.39v-23.89h42.25v68.68c0 8.06-1.99 14.18-5.97 18.36-3.99 4.18-9.71 6.27-17.17 6.27H110.4zm86.74-93.31v70.02h10.6c3.78 0 6.37-.47 7.76-1.42 1.39-.94 2.09-3.11 2.09-6.49v-62.11h29.86v52.41c0 8.46-.55 15.27-1.64 20.45-1.1 5.17-3.14 9.55-6.13 13.14-2.98 3.58-7.06 6.07-12.24 7.46-5.17 1.4-11.89 2.09-20.15 2.09-8.26 0-14.96-.69-20.08-2.09-5.13-1.39-9.18-3.88-12.17-7.46-2.98-3.59-5.03-7.97-6.12-13.14-1.1-5.18-1.64-11.99-1.64-20.45v-52.41h29.86zm117.79 93.31l-22.84-33.14c-.8-1.1-1.3-3.48-1.5-7.17H290v40.31h-29.86v-93.31h28.07l22.84 33.15c.79 1.09 1.29 3.48 1.49 7.16h.6v-40.31H343v93.31h-28.07z"/><path fill="#fff" fill-rule="nonzero" d="M115.02 237.2l-2.99-23.89h12.39c3.09 0 5.05-.42 5.9-1.27.85-.85 1.27-1.92 1.27-3.21v-41.06H119.2v-23.89h42.25v68.68c0 8.07-1.99 14.19-5.97 18.37-3.98 4.18-9.71 6.27-17.17 6.27h-23.29zm86.75-93.32v70.03h10.6c3.78 0 6.37-.48 7.76-1.42 1.39-.95 2.09-3.11 2.09-6.5v-62.11h29.86v52.41c0 8.46-.54 15.28-1.64 20.45-1.09 5.18-3.14 9.56-6.12 13.14-2.99 3.59-7.07 6.07-12.24 7.47-5.18 1.39-11.9 2.09-20.16 2.09s-14.96-.7-20.08-2.09c-5.13-1.4-9.19-3.88-12.17-7.47-2.99-3.58-5.03-7.96-6.12-13.14-1.1-5.17-1.65-11.99-1.65-20.45v-52.41h29.87zm117.8 93.32l-22.84-33.15c-.8-1.09-1.3-3.48-1.5-7.16h-.59v40.31h-29.87v-93.32h28.07l22.85 33.15c.79 1.09 1.29 3.48 1.49 7.16h.6v-40.31h29.86v93.32h-28.07z"/><path fill="#1A1A1A" fill-rule="nonzero" d="M189.52 375.04v-11.06c-3.4-.57-8.9-.85-16.5-.85s-17.08 1.19-28.42 3.57l-4.42-25.18c13.84-4.31 27.22-6.47 40.15-6.47 11.12 0 19.18.68 24.17 2.04 4.99 1.36 8.67 3.01 11.06 4.94 5.21 4.42 7.82 11.11 7.82 20.08 0 11.34-4.7 19.51-14.12 24.5v.85c11.23 4.65 16.85 13.1 16.85 25.35 0 6.01-.94 11.15-2.81 15.4-1.87 4.26-4.23 7.55-7.06 9.87-2.84 2.33-6.58 4.17-11.23 5.53-6.92 1.93-16.65 2.89-29.19 2.89-12.53 0-25.09-1.47-37.69-4.42L142.9 414c10.78 2.61 19.91 3.92 27.39 3.92 7.49 0 13.9-.34 19.23-1.02v-10.89l-29.26-2.9v-24.67l29.26-3.4zm56.92 57.26c-3.23-4.94-5.47-10.64-6.72-17.11-1.25-6.46-1.87-14.6-1.87-24.41 0-9.82.62-17.95 1.87-24.42 1.25-6.47 3.49-12.17 6.72-17.1 3.23-4.94 7.88-8.54 13.95-10.81 6.07-2.26 13.76-3.4 23.06-3.4 9.3 0 16.96 1.14 22.97 3.4 6.01 2.27 10.66 5.87 13.95 10.81 3.29 4.93 5.53 10.63 6.72 17.1 1.2 6.47 1.79 14.63 1.79 24.5s-.59 18.01-1.79 24.42c-1.19 6.41-3.43 12.08-6.72 17.02-3.29 4.93-7.94 8.53-13.95 10.8-6.01 2.27-13.67 3.4-22.97 3.4-9.3 0-16.99-1.13-23.06-3.4s-10.72-5.87-13.95-10.8zm26.46-60.84v47.65h7.14c5.11 0 8.68-.54 10.73-1.62 2.04-1.08 3.06-3.54 3.06-7.4v-47.64h-8c-4.99 0-8.39.51-10.21 1.53-1.81 1.02-2.72 3.51-2.72 7.48z"/></svg>